<svg width="927" height="786" viewBox="0 0 927 786" fill="none" xmlns="http://www.w3.org/2000/svg">
<g clip-path="url(#clip0_2_117)">
<path d="M894.203 329.056C847.863 388.316 760.423 401.886 688.073 381.246C664.4 374.328 641.562 364.821 619.973 352.896C607.433 346.086 595.193 338.616 583.203 330.656C580.253 328.706 577.303 326.726 574.383 324.706C572.393 323.346 570.409 321.97 568.433 320.576C543.673 303.156 519.883 284.046 496.493 265.046C438.103 217.616 378.113 168.726 306.373 146.096C291.593 141.436 272.473 139.256 263.333 151.776C255.403 162.646 260.243 178.036 266.953 189.696C291.843 232.886 337.023 260.156 382.243 281.126C427.462 302.096 475.363 319.086 514.672 349.746C553.983 380.406 583.993 429.136 575.953 478.326C569.023 520.716 534.413 555.156 494.172 570.166C453.933 585.166 409.053 583.076 367.223 573.336C325.393 563.586 285.683 546.576 245.313 531.916C220.973 523.066 189.153 516.946 173.003 537.196C159.363 554.306 167.203 581.296 183.813 595.536C200.422 609.776 222.903 614.546 244.353 618.826C310.953 632.126 377.553 645.423 444.153 658.716C464.583 662.786 485.493 667.046 503.293 677.886C521.093 688.716 535.453 707.636 534.943 728.466C534.433 748.996 519.403 767.136 500.983 776.226C482.573 785.306 461.313 786.706 440.803 785.726C363.943 782.046 143.593 659.936 90.7428 644.326C56.7828 634.306 19.6529 619.586 5.33261 587.206C-12.4975 546.896 16.8429 498.126 56.8927 479.716C96.9327 461.296 143.353 465.376 186.993 471.576C230.633 477.776 275.712 485.666 318.193 473.886C360.672 462.106 399.593 423.706 395.403 379.826C391.753 341.646 357.363 312.876 321.172 300.196C292.843 290.266 262.703 287.566 232.943 283.096C224.683 281.866 216.453 280.486 208.303 278.786C187.431 274.413 167.071 267.878 147.553 259.286C127.071 250.29 107.613 239.122 89.5128 225.976C75.0761 215.506 61.5845 203.792 49.193 190.966C47.3029 189.006 45.4328 187.003 43.5827 184.956C41.8229 182.996 40.0827 180.996 38.383 178.956C16.2629 152.526 -0.0774798 119.976 4.82291 86.4364C9.71256 52.9864 35.7829 25.1364 66.8229 11.7564C84.7628 4.0264 104.113 0.566393 123.703 0.0663926C138.027 -0.219886 152.347 0.81112 166.483 3.14639C231.893 13.6064 291.833 45.3864 348.443 79.7964C405.043 114.206 460.203 151.976 521.733 176.506C583.263 201.046 653.303 211.436 715.723 189.246C778.143 167.066 829.423 106.546 826.373 40.3764C867.773 76.0264 902.953 120.836 918.533 173.196C934.113 225.556 927.853 286.016 894.203 329.056Z" fill="#3F3D56"/>
<path d="M595.911 260.671C599.93 260.671 603.188 257.413 603.188 253.394C603.188 249.374 599.93 246.116 595.911 246.116C591.891 246.116 588.633 249.374 588.633 253.394C588.633 257.413 591.891 260.671 595.911 260.671Z" fill="#6C63FF"/>
<path d="M852.911 168.646C859.125 168.646 864.163 163.608 864.163 157.394C864.163 151.179 859.125 146.142 852.911 146.142C846.696 146.142 841.659 151.179 841.659 157.394C841.659 163.608 846.696 168.646 852.911 168.646Z" fill="#FF6584"/>
<path d="M114.911 515.551C117.207 515.551 119.068 513.69 119.068 511.394C119.068 509.098 117.207 507.236 114.911 507.236C112.615 507.236 110.753 509.098 110.753 511.394C110.753 513.69 112.615 515.551 114.911 515.551Z" fill="#FF6584"/>
<path d="M234.243 272.396C234.245 276.002 233.809 279.596 232.943 283.096C224.683 281.866 216.453 280.486 208.303 278.786C187.431 274.413 167.071 267.878 147.553 259.286C150.692 249.152 157.36 240.48 166.347 234.843C175.335 229.206 186.045 226.978 196.535 228.565C207.025 230.151 216.598 235.446 223.517 243.488C230.435 251.531 234.241 261.787 234.243 272.396V272.396Z" fill="#FF6584"/>
<path d="M780.911 234.646C783.259 234.646 785.163 232.742 785.163 230.394C785.163 228.045 783.259 226.142 780.911 226.142C778.562 226.142 776.659 228.045 776.659 230.394C776.659 232.742 778.562 234.646 780.911 234.646Z" fill="#F0F0F0"/>
<path d="M391.911 702.646C394.259 702.646 396.163 700.742 396.163 698.394C396.163 696.045 394.259 694.142 391.911 694.142C389.562 694.142 387.659 696.045 387.659 698.394C387.659 700.742 389.562 702.646 391.911 702.646Z" fill="#F0F0F0"/>
<path d="M452.911 761.646C455.259 761.646 457.163 759.742 457.163 757.394C457.163 755.045 455.259 753.142 452.911 753.142C450.562 753.142 448.659 755.045 448.659 757.394C448.659 759.742 450.562 761.646 452.911 761.646Z" fill="#F0F0F0"/>
<path d="M75.9107 593.646C78.259 593.646 80.1626 591.742 80.1626 589.394C80.1626 587.045 78.259 585.142 75.9107 585.142C73.5624 585.142 71.6587 587.045 71.6587 589.394C71.6587 591.742 73.5624 593.646 75.9107 593.646Z" fill="#F0F0F0"/>
<path d="M284.911 514.646C287.259 514.646 289.163 512.742 289.163 510.394C289.163 508.045 287.259 506.142 284.911 506.142C282.562 506.142 280.659 508.045 280.659 510.394C280.659 512.742 282.562 514.646 284.911 514.646Z" fill="#F0F0F0"/>
<path d="M263.911 92.6457C266.259 92.6457 268.163 90.7421 268.163 88.3938C268.163 86.0455 266.259 84.1418 263.911 84.1418C261.562 84.1418 259.659 86.0455 259.659 88.3938C259.659 90.7421 261.562 92.6457 263.911 92.6457Z" fill="#F0F0F0"/>
<path d="M520.911 425.646C523.259 425.646 525.163 423.742 525.163 421.394C525.163 419.045 523.259 417.142 520.911 417.142C518.562 417.142 516.659 419.045 516.659 421.394C516.659 423.742 518.562 425.646 520.911 425.646Z" fill="#F0F0F0"/>
<path d="M552.911 499.646C555.259 499.646 557.163 497.742 557.163 495.394C557.163 493.045 555.259 491.142 552.911 491.142C550.562 491.142 548.659 493.045 548.659 495.394C548.659 497.742 550.562 499.646 552.911 499.646Z" fill="#F0F0F0"/>
<path d="M169.643 101.966C169.674 123.435 164.601 144.603 154.843 163.726C153.553 166.246 152.186 168.723 150.743 171.156C136.453 195.289 115.072 214.431 89.5128 225.976C75.076 215.506 61.5845 203.792 49.193 190.966C47.3028 189.006 45.4327 187.003 43.5826 184.956C41.8229 182.996 40.0826 180.996 38.3829 178.956C16.2628 152.526 -0.0775226 119.976 4.82287 86.4363C9.71252 52.9863 35.7829 25.1362 66.8229 11.7562C84.7628 4.02623 104.113 0.566284 123.703 0.0662842C139.02 13.5933 151.095 30.3955 159.033 49.2263C160.033 51.5963 160.953 53.9963 161.823 56.4263C167.013 71.0479 169.658 86.4509 169.643 101.966V101.966Z" fill="#6C63FF"/>
<path d="M231.643 108.966C231.643 129.796 211.303 149.116 174.363 163.386C166.973 166.246 159.063 168.836 150.743 171.156C119.603 179.836 82.5426 184.646 43.5826 184.956C41.8229 182.996 40.0826 180.996 38.3829 178.956C38.8029 178.966 39.2228 178.966 39.6427 178.966C81.9528 178.966 122.093 173.606 154.843 163.726C160.893 161.896 166.693 159.916 172.203 157.786C206.163 144.676 225.643 126.876 225.643 108.966C225.643 91.0563 206.163 73.2663 172.203 60.1463C168.843 58.8463 165.383 57.6063 161.823 56.4263C160.953 53.9963 160.033 51.5963 159.033 49.2263C164.353 50.8863 169.463 52.6596 174.363 54.5463C211.303 68.8162 231.643 88.1463 231.643 108.966Z" fill="#E4E4E4"/>
<path d="M45.9107 34.6457C48.259 34.6457 50.1626 32.7421 50.1626 30.3938C50.1626 28.0455 48.259 26.1418 45.9107 26.1418C43.5624 26.1418 41.6587 28.0455 41.6587 30.3938C41.6587 32.7421 43.5624 34.6457 45.9107 34.6457Z" fill="#F0F0F0"/>
<path d="M134.911 61.6457C137.259 61.6457 139.163 59.7421 139.163 57.3938C139.163 55.0455 137.259 53.1418 134.911 53.1418C132.562 53.1418 130.659 55.0455 130.659 57.3938C130.659 59.7421 132.562 61.6457 134.911 61.6457Z" fill="#F0F0F0"/>
<path d="M88.9107 141.742C111.747 141.742 130.259 123.23 130.259 100.394C130.259 77.5576 111.747 59.0453 88.9107 59.0453C66.0746 59.0453 47.5623 77.5576 47.5623 100.394C47.5623 123.23 66.0746 141.742 88.9107 141.742Z" fill="#F0F0F0"/>
<path opacity="0.3" d="M852.513 319.236C843.232 321.976 822.772 323.996 800.272 325.236C777.783 326.466 753.113 327.006 728.752 327.526C686.113 328.446 643.476 329.37 600.843 330.296C594.982 330.426 589.102 330.546 583.203 330.656C580.252 328.706 577.303 326.726 574.383 324.706C579.613 324.736 584.843 324.706 590.033 324.606C612.203 324.166 630.973 322.436 652.353 321.616C685.252 320.346 720.772 321.346 755.063 321.856C789.353 322.376 828.422 322.186 852.513 319.236Z" fill="#F0F0F0"/>
<path opacity="0.3" d="M198.084 634.467L62.1627 521.236L194.208 639.002C194.463 639.433 194.818 639.797 195.242 640.063C195.667 640.329 196.148 640.49 196.647 640.533C197.146 640.576 197.648 640.499 198.112 640.31C198.575 640.12 198.987 639.822 199.312 639.441C199.638 639.06 199.868 638.607 199.983 638.12C200.099 637.633 200.096 637.125 199.976 636.638C199.856 636.152 199.622 635.701 199.292 635.324C198.963 634.946 198.549 634.652 198.084 634.467H198.084Z" fill="#F0F0F0"/>
<path d="M94.9107 205.646C97.259 205.646 99.1626 203.742 99.1626 201.394C99.1626 199.045 97.259 197.142 94.9107 197.142C92.5624 197.142 90.6587 199.045 90.6587 201.394C90.6587 203.742 92.5624 205.646 94.9107 205.646Z" fill="#F0F0F0"/>
<path d="M360.407 369.211C360.373 369.904 360.394 370.599 360.469 371.288L312.857 411.246L298.657 406.105L288.098 426.519L319.141 441.295L371.193 382.884C373.821 383.361 376.533 383.026 378.966 381.925C381.399 380.823 383.44 379.007 384.816 376.717C386.192 374.428 386.838 371.773 386.669 369.107C386.5 366.442 385.523 363.89 383.869 361.793C382.214 359.696 379.961 358.152 377.407 357.367C374.854 356.582 372.122 356.592 369.575 357.398C367.028 358.203 364.787 359.764 363.149 361.874C361.511 363.985 360.554 366.543 360.406 369.21L360.407 369.211Z" fill="#A0616A"/>
<path d="M296.55 436.312L250.572 419.712C248.482 418.958 246.561 417.799 244.919 416.303C243.276 414.806 241.945 413 241.001 410.989C240.056 408.978 239.517 406.8 239.414 404.58C239.311 402.361 239.647 400.142 240.401 398.052C241.155 395.962 242.314 394.041 243.811 392.399C245.308 390.757 247.113 389.425 249.124 388.481C253.187 386.574 257.84 386.358 262.061 387.881L308.039 404.481C309.446 404.989 310.593 406.035 311.229 407.388C311.865 408.742 311.937 410.293 311.429 411.7L311.429 411.7L303.77 432.921C303.26 434.327 302.214 435.473 300.861 436.109C299.507 436.744 297.957 436.817 296.55 436.311L296.55 436.312Z" fill="#D3C5F0"/>
<path d="M262.877 597.987H278.243L285.553 538.717H262.875L262.877 597.987Z" fill="#A0616A"/>
<path d="M307.876 612.256L259.583 612.259L259.582 593.6L289.216 593.598C291.666 593.598 294.093 594.081 296.357 595.018C298.62 595.956 300.677 597.33 302.41 599.063C304.143 600.795 305.517 602.852 306.455 605.116C307.393 607.38 307.876 609.806 307.876 612.256V612.256Z" fill="#2F2E41"/>
<path d="M224.901 578.136L237.471 586.974L277.542 542.695L258.991 529.652L224.901 578.136Z" fill="#A0616A"/>
<path d="M251.991 612.66L212.487 584.891L223.215 569.628L247.457 586.669C249.461 588.077 251.169 589.867 252.481 591.936C253.794 594.005 254.686 596.312 255.107 598.725C255.528 601.139 255.47 603.612 254.935 606.003C254.4 608.394 253.4 610.656 251.991 612.661V612.66Z" fill="#2F2E41"/>
<path d="M296.5 491.221C296.5 491.221 334.847 486.697 327.964 511.58C321.081 536.463 244.387 557.954 244.387 557.954L296.5 491.221Z" fill="#A0616A"/>
<path d="M270.106 364.25C287.108 364.25 300.89 350.468 300.89 333.466C300.89 316.465 287.108 302.682 270.106 302.682C253.104 302.682 239.322 316.465 239.322 333.466C239.322 350.468 253.104 364.25 270.106 364.25Z" fill="#A0616A"/>
<path d="M171.933 552.859C154.416 532.459 148.287 501.159 176.221 475.123C183.12 468.851 190.932 463.663 199.389 459.737L221.901 396.774C224.239 390.199 228.527 384.493 234.193 380.418C239.859 376.342 246.632 374.092 253.61 373.966C260.384 373.674 267.083 375.486 272.786 379.154C278.489 382.822 282.917 388.165 285.461 394.45C288.21 400.845 288.525 408.024 286.345 414.634C279.643 435.504 270.841 455.641 260.076 474.734L261.24 484.047L318.147 489.105L317.616 489.968C317.339 490.418 289.488 532.853 253.858 561.02C241.675 570.65 229.078 574.642 217.188 574.641C199.159 574.645 182.761 565.466 171.933 552.859Z" fill="#D3C5F0"/>
<path d="M166.563 343.125C172.009 336.635 174.345 328.147 176.225 319.885C179.198 306.814 181.499 293.298 188.105 281.633C194.711 269.968 206.85 260.303 220.235 261.039C233.544 261.771 244.303 272.478 250.014 284.66C251.397 284.124 252.877 283.883 254.358 283.955C255.84 284.026 257.289 284.408 258.614 285.075C262.73 287.329 264.269 293.736 260.843 296.944C264.447 295.229 268.371 294.29 272.361 294.191C276.351 294.092 280.317 294.833 284.002 296.367C288.74 298.385 292.83 301.67 295.822 305.861C298.813 310.053 300.591 314.988 300.959 320.124C301.102 322.209 300.816 324.301 300.118 326.271C299.42 328.24 298.325 330.045 296.901 331.574C290.995 337.654 282.641 335.557 275.213 334.008C268.197 332.545 259.652 332.15 255.699 338.835C254.142 341.621 253.706 344.896 254.48 347.991C255.994 354.664 260.935 359.312 265.728 363.761L266.512 365.217C249.588 368.517 231.112 356.959 226.668 340.298C222.224 323.637 232.508 304.416 248.83 298.858C247.743 298.893 246.667 298.637 245.713 298.117C244.758 297.596 243.96 296.83 243.401 295.897C242.842 294.964 242.543 293.899 242.534 292.812C242.525 291.725 242.807 290.655 243.35 289.713C238.833 287.182 233.722 285.904 228.545 286.014C220.114 286.567 212.818 292.568 208.43 299.789C204.042 307.01 202.055 315.389 200.043 323.596C198.031 331.803 195.853 340.165 191.161 347.196C187.912 352.063 183.569 356.104 178.481 358.994C173.393 361.885 167.7 363.547 161.855 363.847C156.011 364.147 150.178 363.076 144.82 360.721C139.463 358.366 134.73 354.791 131 350.282C136.895 353.141 143.565 353.989 149.987 352.696C156.41 351.404 162.233 348.042 166.563 343.125V343.125Z" fill="#2F2E41"/>
<path d="M404.034 426.866C396.359 426.866 388.856 424.59 382.474 420.326C376.093 416.062 371.119 410.001 368.182 402.91C365.244 395.819 364.476 388.017 365.973 380.489C367.471 372.961 371.167 366.047 376.594 360.619C382.021 355.192 388.936 351.496 396.463 349.999C403.991 348.501 411.794 349.27 418.885 352.207C425.976 355.144 432.036 360.118 436.301 366.5C440.565 372.882 442.841 380.385 442.841 388.06C442.829 398.348 438.737 408.212 431.461 415.487C424.186 422.762 414.323 426.855 404.034 426.866ZM404.034 355.721C397.638 355.721 391.386 357.618 386.068 361.171C380.75 364.724 376.605 369.775 374.157 375.684C371.709 381.593 371.069 388.096 372.317 394.369C373.565 400.642 376.644 406.404 381.167 410.927C385.69 415.449 391.452 418.529 397.725 419.777C403.998 421.025 410.501 420.385 416.41 417.937C422.319 415.489 427.369 411.344 430.923 406.026C434.476 400.708 436.373 394.456 436.373 388.06C436.363 379.486 432.953 371.266 426.89 365.203C420.828 359.141 412.608 355.731 404.034 355.721Z" fill="#FFAEAE"/>
<path d="M402.761 339.552C401.903 339.552 401.08 339.211 400.474 338.604C399.867 337.998 399.527 337.175 399.527 336.318V299.128C399.527 298.27 399.867 297.448 400.474 296.841C401.08 296.235 401.903 295.894 402.761 295.894C403.618 295.894 404.441 296.235 405.047 296.841C405.654 297.448 405.995 298.27 405.995 299.128V336.318C405.994 337.175 405.654 337.998 405.047 338.604C404.441 339.211 403.618 339.552 402.761 339.552Z" fill="#FFAEAE"/>
<path d="M352.292 390.021H315.103C314.245 390.021 313.422 389.68 312.816 389.074C312.209 388.467 311.869 387.645 311.869 386.787C311.869 385.929 312.209 385.107 312.816 384.5C313.422 383.894 314.245 383.553 315.103 383.553H352.292C353.15 383.553 353.972 383.894 354.579 384.5C355.185 385.107 355.526 385.929 355.526 386.787C355.526 387.645 355.185 388.467 354.579 389.074C353.972 389.68 353.15 390.021 352.292 390.021H352.292Z" fill="#FFAEAE"/>
<path d="M488.115 390.021H450.925C450.068 390.021 449.245 389.68 448.639 389.074C448.032 388.467 447.692 387.645 447.692 386.787C447.692 385.929 448.032 385.107 448.639 384.5C449.245 383.894 450.068 383.553 450.925 383.553H488.115C488.973 383.553 489.795 383.894 490.402 384.5C491.008 385.107 491.349 385.929 491.349 386.787C491.349 387.645 491.008 388.467 490.402 389.074C489.795 389.68 488.973 390.021 488.115 390.021Z" fill="#FFAEAE"/>
<path d="M449.904 354.661C449.26 354.661 448.631 354.469 448.097 354.11C447.563 353.75 447.149 353.239 446.907 352.642C446.665 352.046 446.607 351.39 446.739 350.761C446.872 350.131 447.19 349.555 447.652 349.106L463.226 333.996C463.531 333.7 463.891 333.466 464.286 333.309C464.681 333.152 465.103 333.074 465.528 333.08C465.953 333.086 466.373 333.176 466.763 333.345C467.154 333.513 467.507 333.757 467.803 334.062C468.099 334.367 468.332 334.728 468.488 335.123C468.645 335.518 468.722 335.941 468.715 336.366C468.708 336.791 468.618 337.21 468.449 337.6C468.28 337.99 468.035 338.343 467.73 338.639L452.155 353.749C451.553 354.335 450.745 354.663 449.904 354.661V354.661Z" fill="#FFAEAE"/>
<path d="M354.931 354.661C354.09 354.663 353.282 354.335 352.679 353.749L337.105 338.639C336.799 338.343 336.555 337.99 336.386 337.6C336.216 337.21 336.126 336.791 336.119 336.366C336.112 335.941 336.189 335.518 336.346 335.123C336.502 334.728 336.735 334.367 337.031 334.062C337.327 333.757 337.681 333.513 338.071 333.345C338.461 333.176 338.881 333.086 339.306 333.08C339.731 333.074 340.153 333.152 340.548 333.309C340.943 333.466 341.304 333.7 341.608 333.996L357.182 349.106C357.644 349.555 357.962 350.131 358.095 350.761C358.228 351.39 358.17 352.046 357.928 352.642C357.686 353.239 357.271 353.75 356.737 354.11C356.204 354.469 355.574 354.661 354.931 354.661V354.661Z" fill="#FFAEAE"/>
<path d="M342.59 443.036C341.955 443.036 341.334 442.848 340.804 442.497C340.274 442.146 339.86 441.646 339.612 441.061C339.365 440.476 339.295 439.83 339.412 439.206C339.529 438.581 339.828 438.005 340.27 437.549L355.844 421.51C356.442 420.896 357.259 420.544 358.117 420.531C358.974 420.519 359.801 420.848 360.416 421.445C361.031 422.042 361.384 422.859 361.397 423.717C361.41 424.574 361.082 425.401 360.485 426.017L344.911 442.055C344.61 442.366 344.249 442.613 343.85 442.781C343.452 442.949 343.023 443.036 342.59 443.036V443.036Z" fill="#FFAEAE"/>
<path d="M468.712 446.27C468.28 446.27 467.853 446.184 467.455 446.017C467.058 445.849 466.698 445.603 466.398 445.294L447.59 426.022C447.292 425.718 447.058 425.358 446.9 424.964C446.741 424.57 446.662 424.148 446.667 423.723C446.672 423.298 446.761 422.878 446.928 422.487C447.095 422.097 447.338 421.743 447.642 421.446C447.946 421.149 448.306 420.915 448.701 420.758C449.096 420.6 449.517 420.522 449.942 420.527C450.367 420.533 450.787 420.622 451.177 420.79C451.568 420.958 451.921 421.201 452.218 421.505L471.026 440.778C471.47 441.233 471.771 441.809 471.889 442.434C472.008 443.059 471.939 443.706 471.692 444.292C471.445 444.878 471.03 445.379 470.5 445.73C469.97 446.082 469.348 446.27 468.712 446.27V446.27Z" fill="#FFAEAE"/>
<path d="M402.761 478.608C401.903 478.608 401.08 478.268 400.474 477.661C399.867 477.055 399.527 476.232 399.527 475.375V438.185C399.527 437.76 399.61 437.34 399.773 436.947C399.935 436.555 400.174 436.198 400.474 435.898C400.774 435.598 401.131 435.36 401.523 435.197C401.915 435.035 402.336 434.951 402.761 434.951C403.185 434.951 403.606 435.035 403.998 435.197C404.391 435.36 404.747 435.598 405.047 435.898C405.348 436.198 405.586 436.555 405.748 436.947C405.911 437.34 405.995 437.76 405.995 438.185V475.375C405.994 476.232 405.654 477.055 405.047 477.661C404.441 478.268 403.618 478.608 402.761 478.608V478.608Z" fill="#FFAEAE"/>
<path d="M361.95 412.202C361.625 412.815 361.349 413.452 361.124 414.108L301.041 430.041L290.374 419.352L272.139 433.341L293.958 459.911L365.901 429.163C368.078 430.712 370.674 431.562 373.345 431.599C376.016 431.636 378.635 430.859 380.854 429.371C383.072 427.884 384.786 425.756 385.766 423.271C386.745 420.786 386.946 418.062 386.34 415.46C385.733 412.858 384.35 410.503 382.372 408.707C380.395 406.911 377.918 405.76 375.27 405.406C372.622 405.052 369.929 405.513 367.55 406.727C365.17 407.941 363.217 409.85 361.949 412.201L361.95 412.202Z" fill="#A0616A"/>
<path d="M275.626 445.798L241.063 411.23C239.491 409.66 238.243 407.794 237.392 405.741C236.541 403.688 236.102 401.487 236.102 399.264C236.101 397.042 236.538 394.841 237.389 392.787C238.239 390.733 239.486 388.868 241.057 387.296C242.629 385.724 244.495 384.478 246.549 383.627C248.602 382.777 250.803 382.34 253.026 382.34C255.249 382.341 257.449 382.779 259.503 383.63C261.556 384.482 263.421 385.729 264.992 387.301V387.301L299.557 421.866C300.615 422.924 301.209 424.358 301.209 425.854C301.209 427.349 300.616 428.784 299.558 429.841L299.557 429.842L283.604 445.796C282.545 446.852 281.111 447.445 279.616 447.445C278.12 447.445 276.686 446.852 275.627 445.796L275.626 445.798Z" fill="#D3C5F0"/>
</g>
<defs>
<clipPath id="clip0_2_117">
<rect width="926.632" height="785.994" fill="white"/>
</clipPath>
</defs>
</svg>
