<svg width="50" height="50" viewBox="0 0 50 50" fill="none" xmlns="http://www.w3.org/2000/svg">
<rect width="50" height="50" rx="25" fill="#F2F2F2"/>
<path d="M34.5578 26L34.0855 24.9615C35.0024 24.601 35.8099 24.036 36.4364 23.3163C37.0629 22.5967 37.4894 21.7446 37.6779 20.8353C37.8665 19.926 37.8115 18.9876 37.5177 18.1028C37.2239 17.218 36.7003 16.4141 35.9933 15.7621C35.2863 15.1102 34.4176 14.6302 33.4639 14.3646C32.5102 14.099 31.5009 14.0559 30.525 14.2392C29.5492 14.4225 28.6369 14.8265 27.8687 15.4156C27.1006 16.0046 26.5002 16.7605 26.1205 17.6166L25 17.1866C25.4555 16.1593 26.176 15.2523 27.0977 14.5455C28.0195 13.8386 29.1142 13.3539 30.2851 13.1339C31.456 12.9139 32.6672 12.9656 33.8116 13.2843C34.956 13.603 35.9984 14.1789 36.8468 14.9612C37.6951 15.7435 38.3233 16.7081 38.6759 17.7698C39.0285 18.8314 39.0946 19.9576 38.8683 21.0486C38.6421 22.1397 38.1305 23.1622 37.3787 24.0257C36.6269 24.8893 35.6581 25.5673 34.5578 26V26Z" fill="#3F3D56"/>
<path d="M35.3792 37H16.3039C14.3555 36.967 12.4981 36.1699 11.1318 34.7804C9.76562 33.3908 9 31.5201 9 29.5714C9 27.6227 9.76562 25.752 11.1318 24.3625C12.4981 22.973 14.3555 22.1758 16.3039 22.1429H17.7628C18.4864 20.6103 19.6292 19.314 21.0589 18.4039C22.4886 17.4937 24.1468 17.007 25.8416 17C28.146 17.0211 30.356 17.919 32.0221 19.5112C33.6883 21.1034 34.6856 23.2703 34.8113 25.5714H35.3792C36.8784 25.5962 38.3078 26.2091 39.3593 27.278C40.4107 28.347 41 29.7863 41 31.2857C41 32.7851 40.4107 34.2245 39.3593 35.2934C38.3078 36.3624 36.8784 36.9753 35.3792 37V37ZM16.3039 23.2857C14.6587 23.3187 13.092 23.9954 11.9401 25.1706C10.7882 26.3458 10.143 27.9258 10.143 29.5714C10.143 31.217 10.7882 32.797 11.9401 33.9722C13.092 35.1474 14.6587 35.8242 16.3039 35.8571H35.3792C36.5753 35.8324 37.714 35.3399 38.5511 34.4853C39.3882 33.6307 39.8571 32.482 39.8571 31.2857C39.8571 30.0894 39.3882 28.9407 38.5511 28.0861C37.714 27.2315 36.5753 26.739 35.3792 26.7143H34.2571C34.1056 26.7143 33.9602 26.6541 33.8531 26.5469C33.7459 26.4397 33.6857 26.2944 33.6857 26.1429C33.7038 24.0426 32.8882 22.0208 31.4176 20.5211C29.9471 19.0214 27.9418 18.1661 25.8416 18.1429C24.3057 18.151 22.8061 18.6099 21.5287 19.4626C20.2514 20.3154 19.2525 21.5244 18.6561 22.9397C18.6119 23.0424 18.5387 23.1299 18.4453 23.1914C18.352 23.2529 18.2427 23.2857 18.1309 23.2857H16.3039Z" fill="#3F3D56"/>
</svg>
