<svg width="50" height="50" viewBox="0 0 50 50" fill="none" xmlns="http://www.w3.org/2000/svg">
<rect width="50" height="50" rx="25" fill="#F2F2F2"/>
<path d="M36.6766 31H34.0962C33.9257 31 33.7622 30.9308 33.6417 30.8075C33.5211 30.6843 33.4534 30.5171 33.4534 30.3429C33.4534 30.1686 33.5211 30.0014 33.6417 29.8782C33.7622 29.755 33.9257 29.6857 34.0962 29.6857H36.6766C38.0222 29.6573 39.3032 29.0909 40.245 28.1081C41.1868 27.1253 41.7142 25.8043 41.7142 24.4286C41.7142 23.0528 41.1868 21.7319 40.245 20.749C39.3032 19.7662 38.0222 19.1999 36.6766 19.1714H35.4143C35.2438 19.1714 35.0803 19.1022 34.9597 18.9789C34.8392 18.8557 34.7714 18.6886 34.7714 18.5143C34.7918 16.0989 33.8741 13.7739 32.2198 12.0492C30.5655 10.3246 28.3095 9.34099 25.9468 9.31429C24.219 9.32365 22.5319 9.85139 21.0948 10.832C19.6578 11.8127 18.534 13.2031 17.863 14.8307C17.8134 14.9488 17.731 15.0494 17.626 15.1201C17.521 15.1909 17.398 15.2286 17.2723 15.2286H15.2169C13.366 15.2665 11.6034 16.0447 10.3076 17.3962C9.01171 18.7477 8.28587 20.5647 8.28587 22.4571C8.28587 24.3496 9.01171 26.1666 10.3076 27.5181C11.6034 28.8695 13.366 29.6478 15.2169 29.6857H17.2098C17.3803 29.6857 17.5438 29.755 17.6644 29.8782C17.785 30.0014 17.8527 30.1686 17.8527 30.3429C17.8527 30.5171 17.785 30.6843 17.6644 30.8075C17.5438 30.9308 17.3803 31 17.2098 31H15.2169C13.025 30.9621 10.9353 30.0454 9.39831 28.4474C7.8613 26.8494 7 24.6981 7 22.4571C7 20.2161 7.8613 18.0648 9.39831 16.4669C10.9353 14.8689 13.025 13.9522 15.2169 13.9143H16.8581C17.6722 12.1519 18.9579 10.6611 20.5663 9.61444C22.1747 8.5678 24.0401 8.00807 25.9468 8C28.5393 8.02429 31.0255 9.05688 32.8999 10.8879C34.7743 12.7189 35.8963 15.2108 36.0377 17.8571H36.6766C38.3632 17.8856 39.9713 18.5904 41.1542 19.8197C42.3371 21.049 43 22.7043 43 24.4286C43 26.1529 42.3371 27.8081 41.1542 29.0374C39.9713 30.2667 38.3632 30.9716 36.6766 31V31Z" fill="#3F3D56"/>
<path d="M25.5 34C25.3674 34 25.2402 33.9454 25.1465 33.8481C25.0527 33.7509 25 33.619 25 33.4815V27.5185C25 27.381 25.0527 27.2491 25.1465 27.1519C25.2402 27.0546 25.3674 27 25.5 27C25.6326 27 25.7598 27.0546 25.8535 27.1519C25.9473 27.2491 26 27.381 26 27.5185V33.4815C26 33.619 25.9473 33.7509 25.8535 33.8481C25.7598 33.9454 25.6326 34 25.5 34Z" fill="#3F3D56"/>
<path d="M21.5 37C21.3674 37 21.2402 36.9376 21.1465 36.8264C21.0527 36.7153 21 36.5646 21 36.4074V29.5926C21 29.4354 21.0527 29.2847 21.1465 29.1736C21.2402 29.0624 21.3674 29 21.5 29C21.6326 29 21.7598 29.0624 21.8535 29.1736C21.9473 29.2847 22 29.4354 22 29.5926V36.4074C22 36.5646 21.9473 36.7153 21.8535 36.8264C21.7598 36.9376 21.6326 37 21.5 37Z" fill="#3F3D56"/>
<path d="M30.5 39C30.3674 39 30.2402 38.9376 30.1465 38.8264C30.0527 38.7153 30 38.5646 30 38.4074V31.5926C30 31.4354 30.0527 31.2847 30.1465 31.1736C30.2402 31.0624 30.3674 31 30.5 31C30.6326 31 30.7598 31.0624 30.8535 31.1736C30.9473 31.2847 31 31.4354 31 31.5926V38.4074C31 38.5646 30.9473 38.7153 30.8535 38.8264C30.7598 38.9376 30.6326 39 30.5 39V39Z" fill="#3F3D56"/>
</svg>
