<svg width="50" height="50" viewBox="0 0 50 50" fill="none" xmlns="http://www.w3.org/2000/svg">
<rect width="50" height="50" rx="25" fill="#F2F2F2"/>
<path d="M36.6766 33H34.0962C33.9257 33 33.7622 32.9338 33.6417 32.8159C33.5211 32.698 33.4534 32.5381 33.4534 32.3714C33.4534 32.2047 33.5211 32.0449 33.6417 31.927C33.7622 31.8091 33.9257 31.7429 34.0962 31.7429H36.6766C38.0222 31.7157 39.3032 31.1739 40.245 30.2338C41.1868 29.2938 41.7142 28.0302 41.7142 26.7143C41.7142 25.3983 41.1868 24.1348 40.245 23.1947C39.3032 22.2547 38.0222 21.7129 36.6766 21.6857H35.4143C35.2438 21.6857 35.0803 21.6195 34.9597 21.5016C34.8392 21.3837 34.7714 21.2239 34.7714 21.0571C34.7918 18.7468 33.8741 16.5229 32.2198 14.8732C30.5655 13.2235 28.3095 12.2827 25.9468 12.2571C24.219 12.2661 22.5319 12.7709 21.0948 13.7089C19.6578 14.6469 18.534 15.9769 17.863 17.5337C17.8134 17.6467 17.731 17.7429 17.626 17.8106C17.521 17.8782 17.398 17.9143 17.2723 17.9143H15.2169C13.366 17.9506 11.6034 18.695 10.3076 19.9877C9.01171 21.2804 8.28587 23.0184 8.28587 24.8286C8.28587 26.6387 9.01171 28.3767 10.3076 29.6694C11.6034 30.9622 13.366 31.7066 15.2169 31.7429H17.2098C17.3803 31.7429 17.5438 31.8091 17.6644 31.927C17.785 32.0449 17.8527 32.2047 17.8527 32.3714C17.8527 32.5381 17.785 32.698 17.6644 32.8159C17.5438 32.9338 17.3803 33 17.2098 33H15.2169C13.025 32.9637 10.9353 32.0869 9.39831 30.5584C7.8613 29.0299 7 26.9721 7 24.8286C7 22.685 7.8613 20.6272 9.39831 19.0987C10.9353 17.5703 13.025 16.6934 15.2169 16.6571H16.8581C17.6722 14.9713 18.9579 13.5454 20.5663 12.5442C22.1747 11.5431 24.0401 11.0077 25.9468 11C28.5393 11.0232 31.0255 12.0109 32.8999 13.7623C34.7743 15.5137 35.8963 17.8973 36.0377 20.4286H36.6766C38.3632 20.4558 39.9713 21.13 41.1542 22.3058C42.3371 23.4816 43 25.0649 43 26.7143C43 28.3636 42.3371 29.9469 41.1542 31.1228C39.9713 32.2986 38.3632 32.9728 36.6766 33V33Z" fill="#3F3D56"/>
<path d="M24.5 32C25.3284 32 26 31.3284 26 30.5C26 29.6716 25.3284 29 24.5 29C23.6716 29 23 29.6716 23 30.5C23 31.3284 23.6716 32 24.5 32Z" fill="#3F3D56"/>
<path d="M29.5 34C30.3284 34 31 33.3284 31 32.5C31 31.6716 30.3284 31 29.5 31C28.6716 31 28 31.6716 28 32.5C28 33.3284 28.6716 34 29.5 34Z" fill="#3F3D56"/>
<path d="M21.5 36C22.3284 36 23 35.3284 23 34.5C23 33.6716 22.3284 33 21.5 33C20.6716 33 20 33.6716 20 34.5C20 35.3284 20.6716 36 21.5 36Z" fill="#3F3D56"/>
<path d="M26.5 39C27.3284 39 28 38.3284 28 37.5C28 36.6716 27.3284 36 26.5 36C25.6716 36 25 36.6716 25 37.5C25 38.3284 25.6716 39 26.5 39Z" fill="#3F3D56"/>
</svg>
