<svg width="150" height="150" viewBox="0 0 150 150" fill="none" xmlns="http://www.w3.org/2000/svg">
<circle cx="75" cy="75" r="72.5" stroke="#6794DC" stroke-width="5"/>
<path d="M102.5 75C102.5 95.4784 99.2307 113.904 94.0331 127.118C91.4314 133.732 88.3955 138.916 85.152 142.404C81.9118 145.888 78.6481 147.5 75.5 147.5C72.3519 147.5 69.0882 145.888 65.848 142.404C62.6045 138.916 59.5686 133.732 56.9669 127.118C51.7693 113.904 48.5 95.4784 48.5 75C48.5 54.5216 51.7693 36.0961 56.9669 22.8821C59.5686 16.2675 62.6045 11.0841 65.848 7.59635C69.0882 4.11203 72.3519 2.5 75.5 2.5C78.6481 2.5 81.9118 4.11203 85.152 7.59635C88.3955 11.0841 91.4314 16.2675 94.0331 22.8821C99.2307 36.0961 102.5 54.5216 102.5 75Z" stroke="#6794DC" stroke-width="5"/>
<path d="M19 121C35.0093 102.134 80.2222 75.7226 133 121" stroke="#6794DC" stroke-width="5"/>
<path d="M19 29C35.0093 47.8656 80.2222 74.2774 133 29" stroke="#6794DC" stroke-width="5"/>
<line y1="72.5" x2="150" y2="72.5" stroke="#6794DC" stroke-width="5"/>
</svg>
