<svg width="17" height="24" viewBox="0 0 17 24" fill="none" xmlns="http://www.w3.org/2000/svg">
<path d="M12.8955 2.7323L12.8955 20.6884C12.8955 22.1975 13.7202 23.4209 14.7376 23.4209C15.755 23.4209 16.5797 22.1975 16.5797 20.6884V2.7323C16.5797 1.22321 15.755 -0.000152588 14.7376 -0.000152588C13.7202 -0.000152588 12.8955 1.22321 12.8955 2.7323Z" fill="#878787"/>
<path d="M0 14.0169L0 20.9828C0 22.3293 0.824739 23.4209 1.84211 23.4209C2.85947 23.4209 3.68421 22.3293 3.68421 20.9828L3.68421 14.0169C3.68421 12.6704 2.85947 11.5788 1.84211 11.5788C0.824739 11.5788 0 12.6704 0 14.0169Z" fill="#878787"/>
<path d="M6.31641 7.35682L6.31641 20.5376C6.31641 22.13 7.20005 23.4209 8.29009 23.4209C9.38013 23.4209 10.2638 22.13 10.2638 20.5376V7.35682C10.2638 5.76443 9.38013 4.47353 8.29009 4.47353C7.20005 4.47353 6.31641 5.76443 6.31641 7.35682Z" fill="#878787"/>
</svg>
