<svg width="50" height="50" viewBox="0 0 50 50" fill="none" xmlns="http://www.w3.org/2000/svg">
<rect width="50" height="50" rx="25" fill="#F2F2F2"/>
<path d="M26 32C24.6155 32 23.2622 31.5895 22.111 30.8203C20.9599 30.0511 20.0627 28.9579 19.5328 27.6788C19.003 26.3997 18.8644 24.9922 19.1345 23.6344C19.4046 22.2765 20.0713 21.0292 21.0503 20.0502C22.0292 19.0713 23.2765 18.4046 24.6344 18.1345C25.9922 17.8644 27.3997 18.003 28.6788 18.5328C29.9579 19.0627 31.0511 19.9599 31.8203 21.111C32.5895 22.2622 33 23.6155 33 25C32.9979 26.8559 32.2597 28.6351 30.9474 29.9474C29.6351 31.2597 27.8559 31.9979 26 32V32ZM26 19.1667C24.8463 19.1667 23.7185 19.5088 22.7592 20.1498C21.7999 20.7907 21.0522 21.7018 20.6107 22.7677C20.1692 23.8336 20.0537 25.0065 20.2788 26.138C20.5038 27.2696 21.0594 28.309 21.8752 29.1248C22.691 29.9406 23.7304 30.4962 24.862 30.7213C25.9935 30.9463 27.1664 30.8308 28.2323 30.3893C29.2982 29.9478 30.2093 29.2001 30.8502 28.2408C31.4912 27.2815 31.8333 26.1537 31.8333 25C31.8316 23.4534 31.2164 21.9707 30.1229 20.8771C29.0293 19.7835 27.5466 19.1684 26 19.1667V19.1667Z" fill="#3F3D56"/>
<path d="M25.5 16C25.3674 16 25.2402 15.9454 25.1464 15.8481C25.0527 15.7509 25 15.619 25 15.4815V9.51852C25 9.381 25.0527 9.24912 25.1464 9.15188C25.2402 9.05464 25.3674 9 25.5 9C25.6326 9 25.7598 9.05464 25.8536 9.15188C25.9473 9.24912 26 9.381 26 9.51852V15.4815C26 15.619 25.9473 15.7509 25.8536 15.8481C25.7598 15.9454 25.6326 16 25.5 16Z" fill="#3F3D56"/>
<path d="M17.4074 25H10.5926C10.4354 25 10.2847 24.9473 10.1736 24.8536C10.0624 24.7598 10 24.6326 10 24.5C10 24.3674 10.0624 24.2402 10.1736 24.1465C10.2847 24.0527 10.4354 24 10.5926 24H17.4074C17.5646 24 17.7153 24.0527 17.8264 24.1465C17.9376 24.2402 18 24.3674 18 24.5C18 24.6326 17.9376 24.7598 17.8264 24.8536C17.7153 24.9473 17.5646 25 17.4074 25Z" fill="#3F3D56"/>
<path d="M40.4074 25H33.5926C33.4354 25 33.2847 24.9473 33.1736 24.8536C33.0624 24.7598 33 24.6326 33 24.5C33 24.3674 33.0624 24.2402 33.1736 24.1465C33.2847 24.0527 33.4354 24 33.5926 24H40.4074C40.5646 24 40.7153 24.0527 40.8264 24.1465C40.9376 24.2402 41 24.3674 41 24.5C41 24.6326 40.9376 24.7598 40.8264 24.8536C40.7153 24.9473 40.5646 25 40.4074 25Z" fill="#3F3D56"/>
<path d="M33.5869 19C33.47 19 33.3559 18.9644 33.259 18.8977C33.1621 18.831 33.0869 18.7363 33.043 18.6257C32.9991 18.5151 32.9885 18.3936 33.0126 18.2769C33.0367 18.1601 33.0944 18.0533 33.1782 17.9702L36.0045 15.1692C36.1162 15.0585 36.2664 14.9977 36.4221 15.0001C36.5777 15.0025 36.726 15.0679 36.8344 15.1821C36.9428 15.2962 37.0023 15.4496 36.9999 15.6086C36.9976 15.7676 36.9335 15.9191 36.8218 16.0298L33.9955 18.8308C33.8861 18.9395 33.7395 19.0002 33.5869 19V19Z" fill="#3F3D56"/>
<path d="M17.4131 19C17.2605 19.0002 17.1139 18.9395 17.0045 18.8308L14.1782 16.0298C14.1229 15.975 14.0787 15.9095 14.0482 15.8373C14.0176 15.765 14.0012 15.6873 14.0001 15.6086C13.9989 15.5299 14.0129 15.4517 14.0413 15.3785C14.0697 15.3053 14.112 15.2386 14.1656 15.1821C14.2193 15.1256 14.2833 15.0804 14.3541 15.0492C14.4248 15.0179 14.5009 15.0013 14.578 15.0001C14.655 14.9989 14.7316 15.0132 14.8032 15.0422C14.8748 15.0712 14.9402 15.1144 14.9955 15.1692L17.8218 17.9702C17.9056 18.0533 17.9633 18.1601 17.9874 18.2769C18.0115 18.3936 18.0009 18.5151 17.957 18.6257C17.9131 18.7363 17.8379 18.831 17.741 18.8977C17.6441 18.9644 17.53 19 17.4131 19Z" fill="#3F3D56"/>
<path d="M15.5868 34C15.4715 34 15.3587 33.9667 15.2626 33.9042C15.1665 33.8418 15.0913 33.7531 15.0464 33.649C15.0014 33.545 14.9888 33.4303 15.01 33.3193C15.0313 33.2083 15.0854 33.1059 15.1657 33.0248L17.992 30.1744C18.1004 30.065 18.2488 30.0023 18.4044 30.0001C18.5601 29.9978 18.7103 30.0562 18.8219 30.1624C18.9336 30.2687 18.9977 30.414 18.9999 30.5664C19.0022 30.7188 18.9426 30.8659 18.8341 30.9753L16.0079 33.8257C15.9532 33.8809 15.8877 33.9248 15.8154 33.9547C15.7431 33.9847 15.6653 34.0001 15.5868 34V34Z" fill="#3F3D56"/>
<path d="M37.3602 35C37.2749 35.0002 37.1904 34.9834 37.1117 34.9509C37.0331 34.9183 36.9619 34.8706 36.9025 34.8104L33.1818 31.0667C33.1232 31.0077 33.0769 30.9379 33.0457 30.8613C33.0145 30.7847 32.999 30.7028 33 30.6204C33.0011 30.5379 33.0186 30.4564 33.0517 30.3806C33.0848 30.3048 33.1328 30.2362 33.1929 30.1785C33.253 30.1209 33.3241 30.0755 33.4021 30.0449C33.4801 30.0143 33.5635 29.999 33.6474 30C33.7314 30.0011 33.8144 30.0183 33.8916 30.0508C33.9688 30.0833 34.0387 30.1304 34.0974 30.1894L37.818 33.9332C37.906 34.0216 37.9654 34.1335 37.9888 34.255C38.0123 34.3764 37.9987 34.5019 37.9498 34.6158C37.9009 34.7297 37.8189 34.8269 37.7141 34.8953C37.6092 34.9636 37.4861 35 37.3602 35Z" fill="#3F3D56"/>
<path d="M25.5 40C25.3674 40 25.2402 39.9454 25.1464 39.8481C25.0527 39.7509 25 39.619 25 39.4815V33.5185C25 33.381 25.0527 33.2491 25.1464 33.1519C25.2402 33.0546 25.3674 33 25.5 33C25.6326 33 25.7598 33.0546 25.8536 33.1519C25.9473 33.2491 26 33.381 26 33.5185V39.4815C26 39.619 25.9473 39.7509 25.8536 39.8481C25.7598 39.9454 25.6326 40 25.5 40Z" fill="#3F3D56"/>
</svg>
