<svg width="76" height="134" viewBox="0 0 76 134" fill="none" xmlns="http://www.w3.org/2000/svg">
<path d="M76 38.0937C76 59.1323 38 106 38 106C38 106 0 59.1323 0 38.0937C0 27.9907 4.00353 18.3014 11.1299 11.1574C18.2563 4.01344 27.9218 0 38 0C48.0782 0 57.7437 4.01344 64.87 11.1574C71.9964 18.3014 76 27.9907 76 38.0937Z" fill="#FFC28A"/>
<path d="M56 36.5C56 39.9612 54.9736 43.3446 53.0507 46.2225C51.1278 49.1003 48.3947 51.3434 45.197 52.6679C41.9993 53.9924 38.4806 54.339 35.0859 53.6637C31.6913 52.9885 28.573 51.3218 26.1256 48.8744C23.6782 46.4269 22.0115 43.3087 21.3363 39.9141C20.661 36.5194 21.0076 33.0007 22.3321 29.803C23.6567 26.6053 25.8997 23.8722 28.7775 21.9493C31.6554 20.0264 35.0388 19 38.5 19C40.7984 18.9989 43.0745 19.4509 45.1982 20.33C47.3219 21.209 49.2515 22.498 50.8767 24.1233C52.502 25.7485 53.791 27.6781 54.67 29.8018C55.5491 31.9255 56.001 34.2016 56 36.5V36.5Z" fill="white"/>
<path d="M38.5 134C44.299 134 49 129.299 49 123.5C49 117.701 44.299 113 38.5 113C32.701 113 28 117.701 28 123.5C28 129.299 32.701 134 38.5 134Z" fill="#FFC28A"/>
</svg>
