<svg width="173" height="172" viewBox="0 0 173 172" fill="none" xmlns="http://www.w3.org/2000/svg">
<path d="M167.376 58.0717C163.277 46.2945 156.657 35.5532 147.98 26.597C139.303 17.6408 128.776 10.6852 117.135 6.21526C105.493 1.74531 93.0162 -0.131414 80.5747 0.715992C68.1332 1.5634 56.0263 5.11452 45.0982 11.1217C34.1701 17.1289 24.6839 25.4476 17.3012 35.4977C9.9184 45.5478 4.81673 57.0873 2.35195 69.3117C-0.112826 81.536 0.118591 94.1509 3.03008 106.277C5.94158 118.402 11.4631 129.747 19.2095 139.519C19.979 140.489 20.7794 141.459 21.5948 142.398C21.6564 142.459 21.7022 142.521 21.7638 142.582C23.7705 144.894 25.903 147.093 28.1516 149.169C28.7363 149.708 29.3517 150.262 29.9672 150.785C31.1373 151.832 32.3375 152.832 33.5842 153.787C36.0184 155.705 38.5566 157.488 41.1871 159.127L41.2796 159.173C42.9878 160.235 44.7267 161.22 46.4972 162.159L47.2202 162.529C48.8825 163.39 50.5757 164.206 52.3146 164.96C52.6686 165.114 53.0534 165.268 53.4073 165.422C53.4382 165.437 53.4539 165.437 53.4847 165.453C56.9986 166.914 60.6085 168.133 64.2891 169.1C71.5037 171.023 78.9385 171.996 86.405 171.994C89.1292 171.994 91.8225 171.871 94.4851 171.609C100.569 171.048 106.575 169.835 112.4 167.992C112.416 167.992 112.431 167.977 112.446 167.977C116.126 166.805 119.72 165.38 123.204 163.714C123.219 163.698 123.251 163.698 123.266 163.683C124.051 163.314 124.805 162.913 125.575 162.529C125.698 162.467 125.821 162.405 125.944 162.344C126.56 162.021 127.175 161.697 127.791 161.359C129.33 160.512 130.838 159.62 132.331 158.666C132.747 158.419 133.147 158.158 133.562 157.881C134.917 156.988 136.256 156.034 137.548 155.064C137.78 154.895 138.026 154.726 138.257 154.541C152.676 143.596 163.259 128.367 168.49 111.037C173.721 93.7074 173.331 75.1663 167.376 58.0717Z" fill="#B1DEDB"/>
<path d="M114.699 121.596C121.796 121.596 127.549 115.843 127.549 108.746C127.549 101.65 121.796 95.8965 114.699 95.8965C107.603 95.8965 101.849 101.65 101.849 108.746C101.849 115.843 107.603 121.596 114.699 121.596Z" fill="#2F2E41"/>
<path d="M118.279 96.2505C120.503 96.2506 122.689 96.8278 124.623 97.9258C126.557 99.0237 128.173 100.605 129.313 102.514C130.453 104.424 131.078 106.597 131.127 108.82C131.176 111.044 130.647 113.242 129.591 115.2C130.705 113.806 131.516 112.195 131.973 110.47C132.43 108.746 132.523 106.945 132.245 105.182C131.968 103.42 131.326 101.735 130.362 100.234C129.397 98.7328 128.13 97.4494 126.642 96.4651C125.154 95.4809 123.477 94.8175 121.718 94.5171C119.959 94.2166 118.157 94.2859 116.427 94.7203C114.696 95.1548 113.075 95.9449 111.667 97.0405C110.259 98.136 109.094 99.5128 108.247 101.083C109.449 99.575 110.975 98.3572 112.712 97.5205C114.449 96.6837 116.352 96.2497 118.281 96.2505H118.279Z" fill="#2F2E41"/>
<path d="M90.6866 108.719C111.534 108.719 128.434 91.8185 128.434 70.9713C128.434 50.124 111.534 33.2239 90.6866 33.2239C69.8393 33.2239 52.9392 50.124 52.9392 70.9713C52.9392 91.8185 69.8393 108.719 90.6866 108.719Z" fill="#2F2E41"/>
<path d="M61.0609 47.5512C67.5651 40.2364 76.6567 35.7347 86.4172 34.9961C96.1776 34.2576 105.843 37.3399 113.374 43.5927C113.066 43.2988 112.758 43.0032 112.44 42.7185C104.982 36.0464 95.1799 32.6087 85.1883 33.161C75.1968 33.7133 65.8334 38.2104 59.1563 45.6637C52.4792 53.1171 49.0349 62.9168 49.5804 72.9087C50.126 82.9006 54.6168 92.2671 62.0657 98.9492C62.1373 99.0133 62.2092 99.0772 62.2813 99.1409C62.6014 99.4256 62.9308 99.6949 63.2586 99.9673C56.1669 93.2208 51.9737 83.9829 51.5639 74.2032C51.1542 64.4236 54.5599 54.8673 61.0624 47.5511L61.0609 47.5512Z" fill="#2F2E41"/>
<path d="M90.3664 108.398C103.793 108.398 114.678 97.5139 114.678 84.0872C114.678 70.6605 103.793 59.776 90.3664 59.776C76.9397 59.776 66.0552 70.6605 66.0552 84.0872C66.0552 97.5139 76.9397 108.398 90.3664 108.398Z" fill="#E89E94"/>
<path d="M133.87 147.43V155.587C132.377 156.542 130.869 157.434 129.33 158.281C128.714 158.619 128.099 158.943 127.484 159.266C127.36 159.327 127.237 159.389 127.114 159.45C126.344 159.835 125.59 160.235 124.805 160.605C124.79 160.62 124.759 160.62 124.744 160.635C121.26 162.302 117.665 163.727 113.985 164.899C113.97 164.899 113.955 164.914 113.939 164.914C108.114 166.757 102.108 167.969 96.0242 168.531C93.3616 168.793 90.6682 168.916 87.944 168.916C80.4775 168.918 73.0427 167.945 65.8281 166.022C62.1476 165.055 58.5377 163.836 55.0238 162.375C54.993 162.359 54.9772 162.359 54.9464 162.344C54.5924 162.19 54.2076 162.036 53.8537 161.882C52.1147 161.128 50.4216 160.312 48.7593 159.45L48.0364 159.081C46.2658 158.142 44.5268 157.157 42.8187 156.095L42.7263 156.049C40.0957 154.41 37.5575 152.627 35.1233 150.709C33.8766 149.754 32.6764 148.754 31.5063 147.707C30.8908 147.184 30.2753 146.63 29.6907 146.091C27.442 144.015 25.3096 141.815 23.3029 139.504C23.569 137.901 23.9603 136.321 24.473 134.779L24.488 134.764C24.5801 134.501 24.688 134.244 24.8112 133.994C24.8961 133.773 24.9937 133.557 25.1035 133.348C27.8585 128.192 32.8455 126.914 39.0325 126.637C42.5263 126.483 46.389 126.653 50.4681 126.607C52.6227 126.591 54.8539 126.514 57.0859 126.314C71.1683 125.037 68.6138 116.726 69.2444 112.247C69.8756 107.907 73.785 111.662 74.0465 111.908L74.0615 111.924C82.0307 115.653 90.8476 117.199 99.6102 116.402C101.118 116.218 102.627 116.11 104.135 116.064C108.106 116.018 107.244 117.157 105.875 118.096C105.21 118.533 104.516 118.924 103.797 119.265C103.797 119.265 103.166 123.113 102.519 128.869C101.904 134.379 121.311 136.287 125.113 137.488H125.128C127.298 138.286 129.235 139.613 130.761 141.35C132.288 143.086 133.357 145.176 133.87 147.43V147.43Z" fill="#333E61"/>
<path d="M69.5735 53.6982V78.0156H75.2035L82.368 70.3387L81.4091 78.0156H106.296L104.757 70.3387L107.835 78.0156H111.803V53.6982H69.5735Z" fill="#2F2E41"/>
<path d="M65.7351 82.4881C66.795 82.4881 67.6543 80.9129 67.6543 78.9698C67.6543 77.0267 66.795 75.4515 65.7351 75.4515C64.6751 75.4515 63.8159 77.0267 63.8159 78.9698C63.8159 80.9129 64.6751 82.4881 65.7351 82.4881Z" fill="#E89E94"/>
<path d="M114.999 82.4881C116.059 82.4881 116.919 80.9129 116.919 78.9698C116.919 77.0267 116.059 75.4515 114.999 75.4515C113.939 75.4515 113.08 77.0267 113.08 78.9698C113.08 80.9129 113.939 82.4881 114.999 82.4881Z" fill="#E89E94"/>
</svg>
